<?xml version="1.0" standalone="no"?>
<svg xmlns:xlink="http://www.w3.org/1999/xlink" id="wave" style="transform:rotate(0deg); transition: 0.3s" viewBox="0 0 1440 440" version="1.1" xmlns="http://www.w3.org/2000/svg"><defs><linearGradient id="sw-gradient-0" x1="0" x2="0" y1="1" y2="0"><stop stop-color="rgba(243, 106, 62, 1)" offset="0%"/><stop stop-color="rgba(255, 179, 11, 1)" offset="100%"/></linearGradient></defs><path style="transform:translate(0, 0px); opacity:1" fill="url(#sw-gradient-0)" d="M0,264L10,286C20,308,40,352,60,308C80,264,100,132,120,124.7C140,117,160,235,180,286C200,337,220,323,240,264C260,205,280,103,300,88C320,73,340,147,360,154C380,161,400,103,420,80.7C440,59,460,73,480,95.3C500,117,520,147,540,132C560,117,580,59,600,44C620,29,640,59,660,66C680,73,700,59,720,95.3C740,132,760,220,780,234.7C800,249,820,191,840,183.3C860,176,880,220,900,198C920,176,940,88,960,66C980,44,1000,88,1020,139.3C1040,191,1060,249,1080,264C1100,279,1120,249,1140,205.3C1160,161,1180,103,1200,117.3C1220,132,1240,220,1260,212.7C1280,205,1300,103,1320,58.7C1340,15,1360,29,1380,95.3C1400,161,1420,279,1430,337.3L1440,396L1440,440L1430,440C1420,440,1400,440,1380,440C1360,440,1340,440,1320,440C1300,440,1280,440,1260,440C1240,440,1220,440,1200,440C1180,440,1160,440,1140,440C1120,440,1100,440,1080,440C1060,440,1040,440,1020,440C1000,440,980,440,960,440C940,440,920,440,900,440C880,440,860,440,840,440C820,440,800,440,780,440C760,440,740,440,720,440C700,440,680,440,660,440C640,440,620,440,600,440C580,440,560,440,540,440C520,440,500,440,480,440C460,440,440,440,420,440C400,440,380,440,360,440C340,440,320,440,300,440C280,440,260,440,240,440C220,440,200,440,180,440C160,440,140,440,120,440C100,440,80,440,60,440C40,440,20,440,10,440L0,440Z"/></svg>